name rise30.8019peak61.5557fall86.2505.mot
datacolumns 19
datarows 14
range 7.39330500000000 7.41497900000000
endheader
time	ground_force1_vx	ground_force1_vy	ground_force1_vz	ground_force1_px	ground_force1_py	ground_force1_pz	ground_force2_vx	ground_force2_vy	ground_force2_vz	ground_force2_px	ground_force2_py	ground_force2_pz	ground_torque1_x	ground_torque1_y	ground_torque1_z	ground_torque2_x	ground_torque2_y	ground_torque2_z	
7.39330500000000	-4.49472900000000	46.53731600000000	-6.44000100000000	0.29278300000000	0.00000000000000	0.08121500000000	-57.92102300000000	762.06850499999996	-43.93077400000000	0.02588900000000	0.00000000000000	-0.08022100000000	0.00000000000000	-3.84131000000000	0.00000000000000	0.00000000000000	-10.59081100000000	0.00000000000000	
7.39497600000000	-4.80963700000000	53.14992800000000	-7.12765500000000	0.29672100000000	0.00000000000000	0.08151100000000	-58.74382500000000	760.01146000000006	-43.61860700000000	0.02509500000000	0.00000000000000	-0.08009000000000	0.00000000000000	-4.29354200000000	0.00000000000000	0.00000000000000	-10.62557300000000	0.00000000000000	
7.39664100000000	-5.03196100000000	59.67742600000000	-7.74439300000000	0.30034100000000	0.00000000000000	0.08178300000000	-59.58239500000000	757.84804499999996	-43.29303600000000	0.02430600000000	0.00000000000000	-0.07995600000000	0.00000000000000	-4.71059700000000	0.00000000000000	0.00000000000000	-10.66469300000000	0.00000000000000	
7.39830400000000	-5.15396000000000	66.05050600000000	-8.27988900000000	0.30368400000000	0.00000000000000	0.08203400000000	-60.43573300000000	755.57487700000001	-42.95378200000000	0.02352000000000	0.00000000000000	-0.07981900000000	0.00000000000000	-5.08558800000000	0.00000000000000	0.00000000000000	-10.70807700000000	0.00000000000000	
7.39997600000000	-5.17233100000000	72.22547700000000	-8.72870900000000	0.30678300000000	0.00000000000000	0.08226700000000	-61.30275400000000	753.18854399999998	-42.60057200000000	0.02273900000000	0.00000000000000	-0.07967900000000	0.00000000000000	-5.41454600000000	0.00000000000000	0.00000000000000	-10.75561700000000	0.00000000000000	
7.40164500000000	-5.08783300000000	78.18376000000001	-9.09001000000000	0.30966600000000	0.00000000000000	0.08248500000000	-62.18228900000000	750.68561000000000	-42.23313600000000	0.02196200000000	0.00000000000000	-0.07953600000000	0.00000000000000	-5.69630000000000	0.00000000000000	0.00000000000000	-10.80718900000000	0.00000000000000	
7.40331300000000	-4.90463000000000	83.92940600000000	-9.36689400000000	0.31235400000000	0.00000000000000	0.08269000000000	-63.07308400000000	748.06262900000002	-41.85121000000000	0.02119000000000	0.00000000000000	-0.07939000000000	0.00000000000000	-5.93213400000000	0.00000000000000	0.00000000000000	-10.86265600000000	0.00000000000000	
7.40497800000000	-4.62949100000000	89.48519400000001	-9.56556900000000	0.31486700000000	0.00000000000000	0.08288400000000	-63.97380100000000	745.31615899999997	-41.45454000000000	0.02042400000000	0.00000000000000	-0.07924100000000	0.00000000000000	-6.12531000000000	0.00000000000000	0.00000000000000	-10.92186500000000	0.00000000000000	
7.40664500000000	-4.27090600000000	94.88786399999999	-9.69438600000000	0.31722000000000	0.00000000000000	0.08306900000000	-64.88302000000000	742.44276900000000	-41.04288400000000	0.01966200000000	0.00000000000000	-0.07908900000000	0.00000000000000	-6.28050400000000	0.00000000000000	0.00000000000000	-10.98465100000000	0.00000000000000	
7.40831300000000	-3.83822300000000	100.18305700000001	-9.76287900000000	0.31942700000000	0.00000000000000	0.08324500000000	-65.79924200000001	739.43905400000006	-40.61601300000000	0.01890500000000	0.00000000000000	-0.07893400000000	0.00000000000000	-6.40322500000000	0.00000000000000	0.00000000000000	-11.05083300000000	0.00000000000000	
7.40997200000000	-3.34087500000000	105.42039500000000	-9.78087100000000	0.32149800000000	0.00000000000000	0.08341400000000	-66.72088700000000	736.30164700000000	-40.17371200000000	0.01815300000000	0.00000000000000	-0.07877600000000	0.00000000000000	-6.49926000000000	0.00000000000000	0.00000000000000	-11.12021800000000	0.00000000000000	
7.41164100000000	-2.78772400000000	110.64909500000000	-9.75770800000000	0.32344300000000	0.00000000000000	0.08357700000000	-67.64629900000000	733.02723300000002	-39.71578700000000	0.01740700000000	0.00000000000000	-0.07861500000000	0.00000000000000	-6.57419800000000	0.00000000000000	0.00000000000000	-11.19259700000000	0.00000000000000	
7.41330400000000	-2.18658000000000	115.91435199999999	-9.70166900000000	0.32527000000000	0.00000000000000	0.08373500000000	-68.57374700000000	729.61255800000004	-39.24206400000000	0.01666500000000	0.00000000000000	-0.07845100000000	0.00000000000000	-6.63304400000000	0.00000000000000	0.00000000000000	-11.26775000000000	0.00000000000000	
7.41497900000000	-1.54387800000000	121.25464900000000	-9.61955400000000	0.32698500000000	0.00000000000000	0.08388900000000	-69.50143100000000	726.05444899999998	-38.75239100000000	0.01592800000000	0.00000000000000	-0.07828400000000	0.00000000000000	-6.67994700000000	0.00000000000000	0.00000000000000	-11.34544500000000	0.00000000000000	
